<svg xmlns="http://www.w3.org/2000/svg" viewBox="0 0 92.981 34.261">
    <title>USL Championship</title>
    <g id="Championship_abbr_light">
        <rect id="bg" width="92.981" height="34.261" style="fill:#f1f1f3"/>
        <path id="usl" d="M53.83,29.3636h8.156V21.2087H53.83Zm-9.787-8.1549a8.1543,8.1543,0,0,0,8.156,8.1549V4.8976h-8.156Zm-29.361,8.1549a8.1541,8.1541,0,0,0,8.155-8.1549V4.8976h-8.155Zm-9.788-8.1549a8.1543,8.1543,0,0,0,8.156,8.1549V4.8976H4.8944Zm37.518-8.1541a8.1561,8.1561,0,0,0-8.156-8.157v24.466a8.1546,8.1546,0,0,0,.869-16.263v-.046Zm-17.944,0a8.1556,8.1556,0,0,0,7.287,8.1071v.047h-7.287a8.1552,8.1552,0,0,0,8.157,8.1549V4.8976a8.1563,8.1563,0,0,0-8.157,8.157" style="fill:#000207"/>
        <rect id="emblem-bg" x="63.617" y="4.898" width="24.466" height="24.466" style="fill:#b1824f"/>
        <path id="tm" d="M61.63,4.8983l-.402,1.065-.403-1.065H60.47v1.706h.317V5.5513l.326.8971h.23l.326-.8971v1.053h.317V4.8983Zm-2.618.292h.473v1.414h.317V5.19h.4729v-.292H59.0118Z" style="fill:#b1824f"/>
        <polygon id="emblem-star" points="75.85 8.999 77.693 14.67 83.655 14.67 78.831 18.175 80.674 23.845 75.85 20.341 71.026 23.845 72.869 18.175 68.045 14.67 74.007 14.67 75.85 8.999" style="fill:#f1f1f3"/>
    </g>
</svg>
